# xmcd
#
# Track frame offsets:
#	150
#	14614
#	32989
#	46088
#	60177
#	80656
#	100008
#	117552
#	136851
#	147704
#	161834
#	175075
#
# Disc length: 2498 seconds
# Revision: 0
# Processed by: cddbd v1.5.2PL0 Copyright (c) Steve Scherf et al.
# Submitted via: dBpowerAMP V12.0
#
DISCID=a209c00c
DTITLE=Flatt Lonesome - Silence In These Walls
DYEAR=2017
DGENRE=Bluegrass
TTITLE0=All My Life
TTITLE1=It's Just Sad
TTITLE2=Build Me a Bridge
TTITLE3=I'm Not Afraid To Be Alone
TTITLE4=Cry Oh Cry
TTITLE5=Draw Me Near
TTITLE6=Where Do You Go
TTITLE7=Highway of Pain
TTITLE8=Gently Please Tell Me Goodbye
TTITLE9=Happy 'Til He Comes
TTITLE10=Falling
TTITLE11=You're the Reason
EXTD=
EXTT0=
EXTT1=
EXTT2=
EXTT3=
EXTT4=
EXTT5=
EXTT6=
EXTT7=
EXTT8=
EXTT9=
EXTT10=
EXTT11=
PLAYORDER=
